<svg width="80" height="61" viewBox="0 0 80 61" fill="none" xmlns="http://www.w3.org/2000/svg">
<path d="M2.21049 27.348C1.37468 28.1841 0.905151 29.3179 0.905151 30.5001C0.905151 31.6823 1.37468 32.8161 2.21049 33.6521L27.4313 58.8729C28.2721 59.685 29.3983 60.1344 30.5673 60.1242C31.7362 60.1141 32.8544 59.6452 33.6811 58.8186C34.5077 57.992 34.9765 56.8738 34.9867 55.7048C34.9969 54.5359 34.5475 53.4097 33.7354 52.5688L16.1249 34.9584H75.1666C76.3491 34.9584 77.4831 34.4887 78.3192 33.6526C79.1553 32.8165 79.625 31.6825 79.625 30.5001C79.625 29.3176 79.1553 28.1837 78.3192 27.3476C77.4831 26.5115 76.3491 26.0417 75.1666 26.0417H16.1249L33.7354 8.43132C34.5475 7.59047 34.9969 6.46428 34.9867 5.29532C34.9765 4.12636 34.5077 3.00816 33.6811 2.18155C32.8544 1.35494 31.7362 0.886059 30.5673 0.875901C29.3983 0.865743 28.2721 1.31512 27.4313 2.12724L2.21049 27.348Z" fill="black"/>
</svg>
