<svg width="88" height="88" viewBox="0 0 88 88" fill="none" xmlns="http://www.w3.org/2000/svg">
<path d="M69.2159 52.9142C68.3995 52.6902 67.5121 52.9142 66.9047 53.5193L59.9395 60.459C57.4193 62.97 53.4793 63.3472 50.5804 61.3628C41.2961 55.0047 33.3493 47.09 26.9712 37.84C24.9755 34.9478 25.3541 31.0261 27.8783 28.5151L34.8435 21.5754C35.4508 20.9703 35.6835 20.0782 35.4429 19.2569C32.8399 10.2464 26.6083 4.01434 16.9255 0.732831C16.2156 0.489193 15.4307 0.599228 14.8115 1.02755L10.5322 3.99439C0.743108 10.7808 -1.92718 23.8584 4.44265 33.7653C17.4624 54.0026 34.3623 70.8377 54.6698 83.8088C58.3142 86.1351 62.3844 87.2511 66.4194 87.2511C73.3845 87.2511 80.2358 83.9149 84.5542 77.7415L87.5279 73.4779C87.9618 72.857 88.0683 72.0711 87.8198 71.3519C84.3964 61.6026 78.1372 55.4051 69.2156 52.9184L69.2159 52.9142ZM80.6696 75.0457C75.3176 82.7085 65.0238 84.8147 57.226 79.832C37.498 67.2341 21.0747 50.8749 8.43057 31.215C3.43743 23.4541 5.54745 13.1939 13.2344 7.8612L16.5119 5.5899C23.6348 8.27385 28.218 12.7614 30.4777 19.2491L24.5262 25.1788C20.3928 29.2971 19.7776 35.7416 23.0669 40.5079C29.7757 50.2377 38.1252 58.5602 47.8948 65.249C52.6789 68.5223 59.1506 67.9132 63.2802 63.795L69.2395 57.8575C75.6486 60.0345 80.1491 64.6085 82.9368 71.7923L80.665 75.046L80.6696 75.0457Z" fill="white"/>
</svg>
