<svg width="78" height="57" viewBox="0 0 78 57" fill="none" xmlns="http://www.w3.org/2000/svg">
<path d="M8.24921 56.89H70.1612C74.3638 56.8859 77.7703 53.5184 77.7787 49.3598V8.37099C77.7703 4.21241 74.3638 0.844956 70.1612 0.84082H8.24921C4.04659 0.844963 0.64008 4.21241 0.631714 8.37099V49.3598C0.640094 53.5184 4.04659 56.8859 8.24921 56.89ZM70.1612 52.6486H8.24921C6.41402 52.6486 4.92229 51.1782 4.92229 49.3598V16.2897L33.6702 32.3317C37.1018 34.2412 41.2877 34.2412 44.7195 32.3317L73.5297 16.2897V49.3598C73.5297 50.2421 73.1736 51.0829 72.5409 51.7C71.9082 52.3172 71.0495 52.661 70.1612 52.6486ZM8.24921 5.08243H70.1612C71.9964 5.08243 73.4881 6.55281 73.4881 8.3712V11.4238L42.6163 28.6418C40.4919 29.814 37.9068 29.814 35.7824 28.6418L4.88057 11.4238V8.3712C4.88057 7.48896 5.23672 6.64814 5.86942 6.03101C6.5021 5.41386 7.36084 5.07 8.24921 5.08243Z" fill="white"/>
</svg>
