<svg width="80" height="61" viewBox="0 0 80 61" fill="none" xmlns="http://www.w3.org/2000/svg">
<path d="M52.5687 2.12707L77.7895 27.3479C78.6253 28.1839 79.0948 29.3177 79.0948 30.4999C79.0948 31.6821 78.6253 32.8159 77.7895 33.6519L52.5687 58.8727C51.7279 59.6849 50.6017 60.1342 49.4327 60.1241C48.2637 60.1139 47.1455 59.645 46.3189 58.8184C45.4923 57.9918 45.0234 56.8736 45.0133 55.7046C45.0031 54.5357 45.4525 53.4095 46.2646 52.5687L63.875 34.9582H4.83333C3.65091 34.9582 2.51691 34.4885 1.68082 33.6524C0.844716 32.8163 0.375 31.6823 0.375 30.4999C0.375 29.3175 0.844716 28.1835 1.68082 27.3474C2.51691 26.5113 3.65091 26.0416 4.83333 26.0416H63.875L46.2646 8.43115C45.8388 8.01989 45.4992 7.52793 45.2655 6.984C45.0318 6.44006 44.9089 5.85504 44.9037 5.26307C44.8986 4.67109 45.0114 4.08402 45.2355 3.53611C45.4597 2.98819 45.7908 2.49041 46.2094 2.07181C46.628 1.6532 47.1257 1.32216 47.6737 1.09799C48.2216 0.87382 48.8086 0.761015 49.4006 0.76616C49.9926 0.771304 50.5776 0.894293 51.1215 1.12795C51.6655 1.36161 52.1574 1.70125 52.5687 2.12707Z" fill="black"/>
</svg>
