<svg width="243" height="165" viewBox="0 0 243 165" fill="none" xmlns="http://www.w3.org/2000/svg">
<path d="M164.867 109.366C164.867 100.839 130.889 93.9335 88.9748 93.9335M164.867 109.366C164.867 117.892 130.889 124.798 88.9748 124.798C47.0607 124.798 13.0828 117.892 13.0828 109.366M164.867 109.366V147.461C164.867 156.249 130.889 163.379 88.9748 163.379C47.0607 163.379 13.0828 156.257 13.0828 147.461V109.366M164.867 109.366C206.326 109.366 240.759 101.75 240.759 93.9335V16.7717M88.9748 93.9335C47.0607 93.9335 13.0828 100.839 13.0828 109.366M88.9748 93.9335C41.0761 93.9335 2.24107 86.3176 2.24107 78.5012V39.9203M88.9748 24.4879C41.0761 24.4879 2.24107 31.3939 2.24107 39.9203M2.24107 39.9203C2.24107 48.4466 41.0761 55.3526 88.9748 55.3526C88.9748 63.1691 124.243 70.785 165.702 70.785C207.16 70.785 240.759 63.1691 240.759 55.3526M240.759 16.7717C240.759 8.24534 207.15 1.33936 165.702 1.33936C124.254 1.33936 90.6445 8.24534 90.6445 16.7717M240.759 16.7717C240.759 25.2981 207.15 32.2041 165.702 32.2041C124.254 32.2041 90.6445 25.2981 90.6445 16.7717M90.6445 16.7717V95.2144" stroke="white" stroke-width="2.69695"/>
</svg>
