<svg width="178" height="189" viewBox="0 0 178 189" fill="none" xmlns="http://www.w3.org/2000/svg">
<path d="M0.0168457 24.327C0.017057 23.0461 0.312242 21.778 0.885132 20.597C1.45802 19.4161 2.29711 18.3459 3.35329 17.4493C15.4739 7.158 31.6668 1.25403 48.636 0.939061C65.6052 0.624097 82.0753 5.92182 94.6938 15.7539L98.5975 18.9134C106.71 25.0697 117.128 28.4636 127.914 28.4636C138.699 28.4636 149.117 25.0697 157.23 18.9134L159.999 16.7268C166.783 12.0742 176.982 15.7924 177.905 23.2385L177.96 24.327V111.022C177.96 112.303 177.665 113.571 177.092 114.752C176.519 115.933 175.68 117.003 174.624 117.9C162.503 128.191 146.31 134.095 129.341 134.41C112.372 134.725 95.9017 129.427 83.2832 119.595L79.3796 116.435C71.5226 110.473 61.4937 107.095 51.0501 106.894C40.6065 106.694 30.4144 109.682 22.2598 115.337V178.451C22.2566 180.906 21.1712 183.268 19.2253 185.053C17.2794 186.838 14.6198 187.913 11.7901 188.057C8.96032 188.2 6.17392 187.403 4.00019 185.827C1.82647 184.251 0.429492 182.016 0.0946956 179.578L0.0168457 178.451V24.327Z" fill="white"/>
</svg>
