<svg width="211" height="194" viewBox="0 0 211 194" fill="none" xmlns="http://www.w3.org/2000/svg">
<path d="M115.363 10.0159V26.7091H128.349C132.357 26.7091 136.3 27.7775 139.78 29.794L156.788 39.623C157.298 39.9168 157.843 40.0637 158.423 40.0637H187.877C190.5 40.0637 193.015 41.1189 194.869 42.9973C196.724 44.8756 197.765 47.4232 197.765 50.0796C197.765 52.736 196.724 55.2836 194.869 57.1619C193.015 59.0403 190.5 60.0955 187.877 60.0955H182.247L210.08 122.755C210.902 124.609 211.148 126.672 210.786 128.671C210.423 130.67 209.469 132.51 208.049 133.946L201.062 126.868L208.036 133.96L208.023 133.986L207.997 134.013L207.917 134.093L207.838 134.16L207.706 134.293L207.113 134.828C204.327 137.187 201.312 139.19 198.069 140.837C191.912 143.962 182.999 146.9 171.397 146.9C162.161 147.01 153.028 144.933 144.724 140.837C141.487 139.2 138.452 137.183 135.68 134.828L135.087 134.293L134.876 134.093L134.797 134.013L134.744 133.96V133.946C133.324 132.51 132.37 130.67 132.007 128.671C131.645 126.672 131.891 124.609 132.713 122.755L160.559 60.0955H158.423C154.402 60.0955 150.46 59.0405 146.979 57.0106L129.971 47.1817C129.473 46.8932 128.91 46.7413 128.336 46.741H115.363V173.609H148.324C150.946 173.609 153.461 174.665 155.316 176.543C157.17 178.421 158.212 180.969 158.212 183.625C158.212 186.282 157.17 188.829 155.316 190.708C153.461 192.586 150.946 193.641 148.324 193.641H62.6249C60.0023 193.641 57.4872 192.586 55.6328 190.708C53.7783 188.829 52.7365 186.282 52.7365 183.625C52.7365 180.969 53.7783 178.421 55.6328 176.543C57.4872 174.665 60.0023 173.609 62.6249 173.609H95.586V46.741H82.6125C82.039 46.7413 81.4754 46.8932 80.9776 47.1817L63.9829 57.024C60.489 59.0272 56.5468 60.0955 52.5256 60.0955H50.3897L78.2353 122.755C79.0577 124.609 79.304 126.672 78.9413 128.671C78.5787 130.67 77.6243 132.51 76.2049 133.946L69.2171 126.868L76.1917 133.96L76.1785 133.986L76.1521 134.013L76.073 134.093L75.8621 134.293L75.2688 134.828C72.4824 137.187 69.4676 139.19 66.2242 140.837C60.0671 143.962 51.1544 146.9 39.5521 146.9C30.3167 147.01 21.1836 144.933 12.88 140.837C9.64296 139.2 6.60727 137.183 3.83544 134.828L3.24214 134.293L3.03119 134.093L2.95208 134.013L2.89935 133.96V133.946C1.47993 132.51 0.525522 130.67 0.162866 128.671C-0.19979 126.672 0.0464705 124.609 0.868942 122.755L28.7145 60.0955H23.0715C20.449 60.0955 17.9339 59.0403 16.0794 57.1619C14.225 55.2836 13.1832 52.736 13.1832 50.0796C13.1832 47.4232 14.225 44.8756 16.0794 42.9973C17.9339 41.1189 20.449 40.0637 23.0715 40.0637H52.5256C53.1036 40.0657 53.6719 39.9137 54.1736 39.623L71.1552 29.7807C74.6491 27.7775 78.5912 26.7091 82.6125 26.7091H95.586V10.0159C95.586 7.35953 96.6278 4.81194 98.4822 2.9336C100.337 1.05525 102.852 0 105.474 0C108.097 0 110.612 1.05525 112.466 2.9336C114.321 4.81194 115.363 7.35953 115.363 10.0159ZM154.191 123.223C157.948 125.025 163.657 126.868 171.397 126.868C179.136 126.868 184.845 125.025 188.602 123.223L171.397 84.4943L154.191 123.223ZM22.3464 123.223C26.104 125.025 31.8128 126.868 39.5521 126.868C47.2914 126.868 53.0002 125.025 56.7578 123.223L39.5521 84.4943L22.3464 123.223Z" fill="white"/>
</svg>
