<svg width="210" height="215" viewBox="0 0 210 215" fill="none" xmlns="http://www.w3.org/2000/svg">
<path d="M209.108 0.841309C202.238 4.71558 195.52 8.92121 189.038 14.2735L192.401 31.989C198.961 33.9491 204.32 34.6844 209.108 34.7304V0.841309ZM163.617 12.1066C156.594 12.0675 148.69 13.2996 138.877 15.2473L138.776 15.2671L138.675 15.2823C131.887 16.2828 119.927 20.8271 108.129 33.1448L128.475 38.5523C128.921 37.8661 131.203 34.4142 131.636 33.7014C133.991 35.1365 136.346 36.5712 138.701 38.0054C132.968 47.4153 126.411 54.3462 118.51 63.0626C117.534 65.231 118.959 66.8308 120.514 67.7228C122.913 69.0698 126.994 69.1429 128.068 68.6889C139.066 61.4422 146.827 52.177 153.787 42.8277L156.301 43.2708C161.586 44.2042 168.466 43.757 174.09 41.9596C179.19 40.329 182.947 37.6593 184.505 34.7497L180.862 15.5612C175.327 13.165 169.814 12.141 163.617 12.1066ZM86.8277 36.2732L73.2995 89.5782L77.7312 89.7147H125.128L125.542 89.6186L128.669 77.1677C124.597 78.0409 120.26 77.0679 116.464 74.9364C114.08 73.5976 111.857 71.609 110.663 68.7624C107.08 59.5993 117.951 51.6214 123.864 44.5195L86.8277 36.2732ZM14.0438 83.2805L3.47344 104.421H195.981L185.41 83.2805H135.664L134.048 89.7147H143.847V97.9872H55.6074V89.7147H64.731L66.3635 83.2805H14.0438ZM0.917252 112.694V214.721H198.537V112.694H0.917252ZM7.35139 119.128H192.103V208.287H7.35139V119.128ZM15.6239 127.4V181.74L31.4803 147.274L65.1952 161.872L95.8272 140.805L113.068 167.126L136.097 165.014L150.482 146.938L183.831 172.268V127.4H15.6239ZM93.5427 152.415L51.8908 181.061L64.3041 200.014H108.243L117.281 188.658L93.5427 152.415ZM35.6147 158.08L16.3229 200.014H54.4153L40.5391 178.828L57.1502 167.405L35.6147 158.08ZM151.919 158.417L118.815 200.014H183.405L183.831 199.478V182.657L151.919 158.417ZM128.965 173.975L118.199 174.962L122.705 181.842L128.965 173.975Z" fill="white"/>
</svg>
