<svg width="186" height="186" viewBox="0 0 186 186" fill="none" xmlns="http://www.w3.org/2000/svg">
<path d="M57.2243 93.4077C46.816 93.7519 38.3031 98.1575 31.6856 106.625H18.7716C13.5033 106.625 9.07014 105.231 5.47224 102.443C1.87433 99.6547 0.0753784 95.5761 0.0753784 90.2068C0.0753784 65.9071 4.05877 53.7573 12.0256 53.7573C12.4111 53.7573 13.8085 54.4801 16.2178 55.9257C18.6271 57.3713 21.7592 58.8341 25.6141 60.3141C29.469 61.7941 33.2918 62.5341 37.0824 62.5341C41.3871 62.5341 45.6596 61.7425 49.9 60.1592C49.5787 62.7062 49.4181 64.9778 49.4181 66.9741C49.4181 76.5425 52.0201 85.3537 57.2243 93.4077ZM160.439 159.182C160.439 167.442 158.094 173.965 153.404 178.749C148.714 183.533 142.482 185.925 134.708 185.925H50.4782C42.7041 185.925 36.4721 183.533 31.7819 178.749C27.0918 173.965 24.7467 167.442 24.7467 159.182C24.7467 155.534 24.8592 151.971 25.084 148.495C25.3089 145.019 25.7586 141.267 26.4333 137.24C27.1079 133.213 27.9592 129.479 28.9871 126.037C30.0151 122.595 31.3964 119.239 33.1311 115.969C34.8658 112.699 36.8575 109.912 39.1062 107.605C41.3549 105.299 44.1015 103.458 47.3461 102.081C50.5906 100.704 54.1725 100.016 58.0916 100.016C58.7341 100.016 60.1154 100.756 62.2356 102.236C64.3558 103.716 66.7009 105.368 69.2708 107.192C71.8408 109.017 75.278 110.669 79.5827 112.149C83.8873 113.629 88.2241 114.369 92.593 114.369C96.9619 114.369 101.299 113.629 105.603 112.149C109.908 110.669 113.345 109.017 115.915 107.192C118.485 105.368 120.83 103.716 122.95 102.236C125.07 100.756 126.452 100.016 127.094 100.016C131.013 100.016 134.595 100.704 137.84 102.081C141.084 103.458 143.831 105.299 146.08 107.605C148.328 109.912 150.32 112.699 152.055 115.969C153.789 119.239 155.171 122.595 156.199 126.037C157.227 129.479 158.078 133.213 158.753 137.24C159.427 141.267 159.877 145.019 160.102 148.495C160.327 151.971 160.439 155.534 160.439 159.182ZM61.7538 27.3237C61.7538 34.6205 59.3445 40.8503 54.5258 46.0131C49.7072 51.1759 43.8927 53.7573 37.0824 53.7573C30.2721 53.7573 24.4576 51.1759 19.639 46.0131C14.8204 40.8503 12.4111 34.6205 12.4111 27.3237C12.4111 20.027 14.8204 13.7972 19.639 8.63435C24.4576 3.47154 30.2721 0.890137 37.0824 0.890137C43.8927 0.890137 49.7072 3.47154 54.5258 8.63435C59.3445 13.7972 61.7538 20.027 61.7538 27.3237ZM129.6 66.9741C129.6 77.9193 125.986 87.264 118.758 95.0082C111.53 102.752 102.808 106.625 92.593 106.625C82.3775 106.625 73.6558 102.752 66.4278 95.0082C59.1999 87.264 55.5859 77.9193 55.5859 66.9741C55.5859 56.029 59.1999 46.6843 66.4278 38.9401C73.6558 31.1958 82.3775 27.3237 92.593 27.3237C102.808 27.3237 111.53 31.1958 118.758 38.9401C125.986 46.6843 129.6 56.029 129.6 66.9741ZM185.111 90.2068C185.111 95.5761 183.312 99.6547 179.714 102.443C176.116 105.231 171.683 106.625 166.414 106.625H153.5C146.883 98.1575 138.37 93.7519 127.962 93.4077C133.166 85.3537 135.768 76.5425 135.768 66.9741C135.768 64.9778 135.607 62.7062 135.286 60.1592C139.526 61.7425 143.799 62.5341 148.104 62.5341C151.894 62.5341 155.717 61.7941 159.572 60.3141C163.427 58.8341 166.559 57.3713 168.968 55.9257C171.377 54.4801 172.775 53.7573 173.16 53.7573C181.127 53.7573 185.111 65.9071 185.111 90.2068ZM172.775 27.3237C172.775 34.6205 170.366 40.8503 165.547 46.0131C160.728 51.1759 154.914 53.7573 148.104 53.7573C141.293 53.7573 135.479 51.1759 130.66 46.0131C125.841 40.8503 123.432 34.6205 123.432 27.3237C123.432 20.027 125.841 13.7972 130.66 8.63435C135.479 3.47154 141.293 0.890137 148.104 0.890137C154.914 0.890137 160.728 3.47154 165.547 8.63435C170.366 13.7972 172.775 20.027 172.775 27.3237Z" fill="white"/>
</svg>
